<?xml version="1.0" standalone="no"?><!DOCTYPE svg PUBLIC "-//W3C//DTD SVG 1.1//EN" "http://www.w3.org/Graphics/SVG/1.1/DTD/svg11.dtd"><svg width="200" height="200" viewBox="0 0 200 200" version="1.1" xmlns="http://www.w3.org/2000/svg" xmlns:xlink="http://www.w3.org/1999/xlink"><defs><style type="text/css"><![CDATA[
@font-face { font-family: ifont; src: url(http://at.alicdn.com/t/font_1442373896_4754455.eot?#iefix) format(embedded-opentype), url(http://at.alicdn.com/t/font_1442373896_4754455.woff) format(woff), url(http://at.alicdn.com/t/font_1442373896_4754455.ttf) format(truetype), url(http://at.alicdn.com/t/font_1442373896_4754455.svg#ifont) format(svg); }

]]></style></defs><g class="transform-group"><g transform="scale(0.1953125, 0.1953125)"><path d="M512 51.2C257.5104 51.2 51.2 257.5104 51.2 512c0 101.4528 33.1776 194.9184 88.704 271.0528l34.6368-36.0448C128.0256 680.3456 100.5824 599.4496 100.5824 512c0-227.2256 184.192-411.4176 411.4176-411.4176 227.2 0 411.4176 184.192 411.4176 411.4176S739.2 923.4176 512 923.4176c-86.6048 0-166.8864-26.9056-233.1648-72.6272l-31.0016 38.4C322.6624 941.7216 413.6448 972.8 512 972.8c254.4896 0 460.8-206.3104 460.8-460.8C972.8 257.5104 766.4896 51.2 512 51.2L512 51.2zM495.5392 281.6l0 213.9392L281.6 495.5392l0 49.3568 213.9392 0 0 213.9392 49.3568 0 0-213.9392 213.9392 0 0-49.3568-213.9392 0L544.896 281.6 495.5392 281.6zM495.5392 281.6" fill="#272636"></path></g></g></svg>